<?xml version="1.0"?>
<svg xmlns="http://www.w3.org/2000/svg" viewBox="0 0 64 64" width="512" height="512"><g id="Website"><path fill="#F1FAEE" d="M57,2H7A5.006,5.006,0,0,0,2,7V45a5.006,5.006,0,0,0,5,5H22.719l-1.5,6H17a3,3,0,0,0-3,3v3H50V59a3,3,0,0,0-3-3H41.781l-1.5-6H57a5.006,5.006,0,0,0,5-5V7A5.006,5.006,0,0,0,57,2ZM47,58a1,1,0,0,1,1,1v1H16V59a1,1,0,0,1,1-1Zm-7.281-2H23.281l1.5-6H38.219ZM60,45a3,3,0,0,1-3,3H7a3,3,0,0,1-3-3V7A3,3,0,0,1,7,4H57a3,3,0,0,1,3,3Z"/><path fill="#F1FAEE" d="M35,45a3,3,0,1,0-3,3A3,3,0,0,0,35,45Zm-3,1a1,1,0,1,1,1-1A1,1,0,0,1,32,46Z"/><path fill="#F1FAEE" d="M15,13H14a1,1,0,0,0,0,2h1a1,1,0,0,0,0-2Z"/><path fill="#F1FAEE" d="M19,13H18a1,1,0,0,0,0,2h1a1,1,0,0,0,0-2Z"/><path fill="#F1FAEE" d="M23,13H22a1,1,0,0,0,0,2h1a1,1,0,0,0,0-2Z"/><path fill="#F1FAEE" d="M52.535,44.878a1,1,0,0,0,0-1.414L51.071,42H57a1,1,0,0,0,1-1V7a1,1,0,0,0-1-1H7A1,1,0,0,0,6,7V41a1,1,0,0,0,1,1H38.77l.063.273a1,1,0,0,0,1.682.484l1.414-1.414,6.364,6.364a1,1,0,0,0,1.414,0ZM52,16H12V13a1,1,0,0,1,1-1H51a1,1,0,0,1,1,1ZM8,8H56V40H54V13a3,3,0,0,0-3-3H13a3,3,0,0,0-3,3V40H8Zm4,32V18H52V40H49.071l-2.9-2.9,1.414-1.415a1,1,0,0,0-.481-1.681L37.927,31.87a1,1,0,0,0-1.2,1.2L38.313,40Zm30.636-.778a1,1,0,0,0-1.414,0l-.843.842L39.032,34.18,44.9,35.545l-.847.849a1,1,0,0,0,0,1.414l6.363,6.363L49,45.586Z"/><path fill="#F1FAEE" d="M23.447,24.105a1,1,0,0,0-1.342.448L21,26.764,19.9,24.553a1.042,1.042,0,0,0-1.79,0L17,26.764,15.9,24.553a1,1,0,0,0-1.79.894l2,4a1.042,1.042,0,0,0,1.79,0L19,27.236l1.105,2.211a1,1,0,0,0,1.79,0l2-4A1,1,0,0,0,23.447,24.105Z"/><path fill="#F1FAEE" d="M35.447,24.105a1,1,0,0,0-1.342.448L33,26.764,31.9,24.553a1.042,1.042,0,0,0-1.79,0L29,26.764,27.9,24.553a1,1,0,0,0-1.79.894l2,4a1.042,1.042,0,0,0,1.79,0L31,27.236l1.1,2.211a1,1,0,0,0,1.79,0l2-4A1,1,0,0,0,35.447,24.105Z"/><path fill="#F1FAEE" d="M47.447,24.105a1,1,0,0,0-1.342.448L45,26.764l-1.1-2.211a1.042,1.042,0,0,0-1.79,0L41,26.764l-1.1-2.211a1,1,0,0,0-1.79.894l2,4a1.042,1.042,0,0,0,1.79,0L43,27.236l1.1,2.211a1,1,0,0,0,1.79,0l2-4A1,1,0,0,0,47.447,24.105Z"/><circle cx="25" cy="29" r="1" fill="#F1FAEE" /><circle cx="37" cy="29" r="1" fill="#F1FAEE" /><circle cx="49" cy="29" r="1"  fill="#F1FAEE" /></g></svg>
