<?xml version="1.0" encoding="iso-8859-1"?>
<!-- Generator: Adobe Illustrator 19.0.0, SVG Export Plug-In . SVG Version: 6.00 Build 0)  -->
<svg version="1.1" id="Capa_1" xmlns="http://www.w3.org/2000/svg" xmlns:xlink="http://www.w3.org/1999/xlink" x="0px" y="0px"
	 viewBox="0 0 512 512" style="enable-background:new 0 0 512 512;" xml:space="preserve">
<g>
	<g>
		<path fill="#f1faee" d="M361.316,296.574c18.15-29.607,28.628-64.402,28.628-101.602C389.944,87.465,302.48,0,194.972,0S0,87.465,0,194.972
			s87.465,194.972,194.972,194.972c37.2,0,71.995-10.478,101.602-28.628L425.439,512L512,425.439L361.316,296.574z M194.972,359.949
			c-90.968,0-164.976-74.008-164.976-164.977S104.004,29.996,194.972,29.996s164.977,74.008,164.977,164.976
			S285.94,359.949,194.972,359.949z M320.941,343.658c8.178-6.939,15.778-14.539,22.717-22.717L467.86,427.159l-40.701,40.701
			L320.941,343.658z"/>
	</g>
</g>
<g>
</g>
<g>
</g>
<g>
</g>
<g>
</g>
<g>
</g>
<g>
</g>
<g>
</g>
<g>
</g>
<g>
</g>
<g>
</g>
<g>
</g>
<g>
</g>
<g>
</g>
<g>
</g>
<g>
</g>
<g>
</g>
<g>
</g>
</svg>
