<?xml version="1.0" encoding="iso-8859-1"?>
<!-- Generator: Adobe Illustrator 19.0.0, SVG Export Plug-In . SVG Version: 6.00 Build 0)  -->
<svg version="1.1" id="Capa_1" xmlns="http://www.w3.org/2000/svg" xmlns:xlink="http://www.w3.org/1999/xlink" x="0px" y="0px"
	 viewBox="0 0 512 512" style="enable-background:new 0 0 512 512;" xml:space="preserve">
<g>
	<g>
		<path d="M361.316,296.574c18.15-29.607,28.628-64.402,28.628-101.602C389.944,87.465,302.48,0,194.972,0S0,87.465,0,194.972
			s87.465,194.972,194.972,194.972c37.2,0,71.995-10.478,101.602-28.628L425.439,512L512,425.439L361.316,296.574z M194.972,359.949
			c-90.968,0-164.976-74.008-164.976-164.977S104.004,29.996,194.972,29.996s164.977,74.008,164.977,164.976
			S285.94,359.949,194.972,359.949z M320.941,343.658c8.178-6.939,15.778-14.539,22.717-22.717L467.86,427.159l-40.701,40.701
			L320.941,343.658z"/>
	</g>
</g>
<g>
	<g>
		<path d="M194.972,59.991c-33.079,0-59.991,26.912-59.991,59.991s26.912,59.991,59.991,59.991
			c33.079,0,59.991-26.912,59.991-59.991S228.051,59.991,194.972,59.991z M194.972,149.979c-16.54,0-29.996-13.456-29.996-29.996
			c0-16.54,13.456-29.996,29.996-29.996c16.54,0,29.996,13.456,29.996,29.996C224.968,136.523,211.512,149.979,194.972,149.979z"/>
	</g>
</g>
<g>
	<g>
		<path d="M209.97,179.974h-14.998h-14.998c-41.349,0-74.989,33.64-74.989,74.989v44.994h179.974v-44.994
			C284.959,213.615,251.319,179.974,209.97,179.974z M254.964,269.961H134.981v-14.998c0-24.809,20.184-44.994,44.994-44.994h29.996
			c24.81,0,44.994,20.184,44.994,44.994V269.961z"/>
	</g>
</g>
<g>
</g>
<g>
</g>
<g>
</g>
<g>
</g>
<g>
</g>
<g>
</g>
<g>
</g>
<g>
</g>
<g>
</g>
<g>
</g>
<g>
</g>
<g>
</g>
<g>
</g>
<g>
</g>
<g>
</g>
</svg>
